<svg id="Layer_1" data-name="Layer 1" xmlns="http://www.w3.org/2000/svg" viewBox="0 0 435.2 512"><title>New-previous</title><path d="M134.77,343.83a8.53,8.53,0,0,1,12.06,12.07l-19.56,19.57h98.86a8.53,8.53,0,1,1,0,17.06H127.27l19.56,19.57a8.53,8.53,0,1,1-12.06,12.07L100.63,390a8.53,8.53,0,0,1,0-12.06Z" transform="translate(-38.4 0)"/><path d="M38.4,384a128,128,0,1,0,128-128A128.14,128.14,0,0,0,38.4,384Zm17.07,0A110.93,110.93,0,1,1,166.4,494.93,111.05,111.05,0,0,1,55.47,384Z" transform="translate(-38.4 0)"/><path d="M285.87,469.33H456.53V409.6a8.54,8.54,0,0,1,17.07,0v68.27a8.53,8.53,0,0,1-8.53,8.53H285.87a8.54,8.54,0,1,1,0-17.07Z" transform="translate(-38.4 0)"/><path d="M46.93,384H47a8.5,8.5,0,0,0,8.49-8.53A8.56,8.56,0,1,0,46.93,384Z" transform="translate(-38.4 0)"/><path d="M473.6,341.33V8.53A8.53,8.53,0,0,0,465.07,0H260.27a8.55,8.55,0,0,0-6,2.5L117.7,139a8.55,8.55,0,0,0-2.5,6V230.4a8.54,8.54,0,0,0,17.07,0V153.6h128a8.53,8.53,0,0,0,8.53-8.53v-128H456.53V341.33a8.54,8.54,0,1,0,17.07,0ZM251.73,136.53H144.33l107.4-107.4Z" transform="translate(-38.4 0)"/></svg>