<svg height='300px' width='300px'  fill="#000000" xmlns="http://www.w3.org/2000/svg" xmlns:xlink="http://www.w3.org/1999/xlink" viewBox="0 0 60 60" version="1.1" x="0px" y="0px"><title>Icon / blue / expand</title><desc>Created with Sketch.</desc><g stroke="none" stroke-width="1" fill="none" fill-rule="evenodd"><path d="M25.1705983,34.8294017 C25.7697306,35.4285339 25.7697306,36.3999193 25.1705983,36.9990515 L18.238,43.931 L23.739219,43.9316517 C24.58652,43.9316517 25.2733932,44.6185249 25.2733932,45.4658259 C25.2733932,46.3131268 24.58652,47 23.739219,47 L14.5341741,47 C13.6868732,47 13,46.3131268 13,45.4658259 L13,36.260781 C13,35.41348 13.6868732,34.7266068 14.5341741,34.7266068 C15.3814751,34.7266068 16.0683483,35.41348 16.0683483,36.260781 L16.068,41.761 L23.0009485,34.8294017 C23.6000807,34.2302694 24.5714661,34.2302694 25.1705983,34.8294017 Z M45.4658259,13 C46.3131268,13 47,13.6868732 47,14.5341741 L47,23.739219 C47,24.58652 46.3131268,25.2733932 45.4658259,25.2733932 C44.6185249,25.2733932 43.9316517,24.58652 43.9316517,23.739219 L43.931,18.237 L36.9990515,25.1705983 C36.3999193,25.7697306 35.4285339,25.7697306 34.8294017,25.1705983 C34.2302694,24.5714661 34.2302694,23.6000807 34.8294017,23.0009485 L41.762,16.068 L36.260781,16.0683483 C35.41348,16.0683483 34.7266068,15.3814751 34.7266068,14.5341741 C34.7266068,13.6868732 35.41348,13 36.260781,13 L45.4658259,13 Z" fill="#000000" fill-rule="nonzero"></path></g></svg>