<?xml version="1.0" encoding="UTF-8"?>
<svg width="22px" height="32px" viewBox="0 0 22 32" version="1.1" xmlns="http://www.w3.org/2000/svg" xmlns:xlink="http://www.w3.org/1999/xlink">
    <!-- Generator: Sketch 47.1 (45422) - http://www.bohemiancoding.com/sketch -->
    <title>Location_icon</title>
    <desc>Created with Sketch.</desc>
    <defs></defs>
    <g id="Symbols" stroke="none" stroke-width="1" fill="none" fill-rule="evenodd">
        <g id="TopBar" transform="translate(-930.000000, -14.000000)" fill="#FFFFFF">
            <path d="M946.143743,24.8798497 C946.101087,21.8520211 943.7318,19.5103595 940.767652,19.5374771 C937.966514,19.5631729 935.588493,21.8215519 935.52857,24.6722527 C935.46103,27.8830997 937.996272,30.1927686 940.909029,30.1526508 C943.796902,30.1128377 946.183658,27.7034329 946.143743,24.8798497 M940.834989,46 C940.413396,45.4450538 940.012827,44.9245379 939.619368,44.3987406 C937.288472,41.2832622 935.155017,38.0395084 933.298832,34.6179159 C932.121907,32.4484054 931.072649,30.2164331 930.433303,27.8254113 C929.419693,24.0352427 930.180205,20.6182206 932.75912,17.6398537 C934.15847,16.0238676 935.91492,14.9370303 937.975756,14.4022953 C941.617642,13.4574446 944.937467,14.1745887 947.831434,16.5802356 C949.940311,18.3331302 951.169947,20.6157831 951.560867,23.3424741 C951.833465,25.2435507 951.544617,27.0702823 950.928935,28.8726386 C950.068485,31.3918342 948.887599,33.7568556 947.565336,36.0578915 C945.79091,39.145846 943.775574,42.0735324 941.659486,44.9341865 C941.403443,45.2803169 941.132876,45.6156815 940.834989,46" id="Location_icon"></path>
        </g>
    </g>
</svg>